<?xml version="1.0" encoding="utf-8"?>
<!-- Generator: Adobe Illustrator 27.3.1, SVG Export Plug-In . SVG Version: 6.00 Build 0)  -->
<svg version="1.1" id="Layer_1" xmlns="http://www.w3.org/2000/svg" xmlns:xlink="http://www.w3.org/1999/xlink" x="0px" y="0px"
	 viewBox="0 0 512 512" style="enable-background:new 0 0 512 512;" xml:space="preserve">
<style type="text/css">
	.st0{fill:#FFFFFF;}
	.st1{fill:#9C9EA1;}
	.st2{fill:#FCC446;}
	.st3{fill:none;}
</style>
<rect x="0" class="st0" width="512" height="512"/>
<g>
	<g>
		<path class="st1" d="M310.4,250.5c-2.2-0.9-4-0.6-5.8-0.6c-31.8,0-63.5,0-95.2,0c-1.1,0-2.3,0-3.4,0c-3.8-0.1-3.9-0.3-2.5-4
			c2.9-7.5,5.9-14.9,8.9-22.3c1.4-3.5,2.8-7,4.1-10.5c0.6-1.6,1.6-2.4,3.3-2.2c0.8,0.1,1.6,0,2.4,0c36.3,0,72.7,0,109,0
			c4.8,0,9.1,1,13,3.7c7.1,4.8,10.6,13.3,7.9,22.4c-1.7,5.6-4,11.1-6.1,16.6c-5.2,13.6-10.6,27.1-15.5,40.8
			c-3.1,8.8-11.3,13.7-20.1,13.6c-18.3,0-36.7,0-55,0c-11.6,0-23.2,0-34.9,0c-1.1,0-2.3,0-3.4,0c-1.5,0-2.4,0.5-2.9,2
			c-1.6,4.8-3.4,9.5-5.1,14.3c-4.8,13.4-9.6,26.8-14.4,40.2c-0.2,0.5-0.3,0.9-0.5,1.4c-0.5,1.6-1.5,2.3-3.3,2.3
			c-11.1-0.1-22.3,0-33.4,0c-1.8,0-2.1-0.6-1.4-2.5c3.4-8.8,6.9-17.7,10.4-26.5c7.7-19.5,15.4-38.9,23-58.4c0.7-1.7,1.3-3.3,2.5-4.8
			c2.6-3.3,6.3-4.5,10.3-4.9c1.5-0.1,2.9,0,4.4,0c30.1,0,60.2,0,90.3,0c5.8,0,4.9,0.8,7.4-5c1.8-4.2,3.4-8.5,5.1-12.8
			C309.8,252.3,310,251.6,310.4,250.5z"/>
		<path class="st1" d="M288.1,367.4c-0.7,0.8-1.5,0.6-2.3,0.6c-11.8,0-23.6,0-35.3,0.1c-2.5,0-4-0.9-5-3c-0.3-0.6-0.6-1.1-0.9-1.7
			c-7.1-13.5-14.2-26.9-21.3-40.4c-0.6-1.2-1.2-2.3-1.7-3.5c-0.4-0.9,0.1-1.7,1-1.8c0.3,0,0.6-0.1,1-0.1c11.4-0.2,22.9-0.4,34.3-0.7
			c2.2-0.1,3.6,0.7,4.6,2.7c4.8,8.9,9.7,17.8,14.6,26.7c3.5,6.3,6.9,12.6,10.4,18.9C287.8,365.9,288.2,366.6,288.1,367.4z"/>
	</g>
	<g>
		<path class="st1" d="M489.6,214.5c-3.8-2.5-9.2-3.7-16.1-3.7h-5h-57.3h-5.7c-6.9,0-13.2,1.2-18.9,3.7c-10,4.4-13.7,10.8-14.9,14.3
			l-5.9,16.2c-0.9,2.4,0.9,4.9,3.5,4.9h13.9h19.3c0.8,0,1.6-0.5,1.9-1.3l1-2.8h42.4l-6.7,18.5c-0.9,2.6,1,5.3,3.7,5.3h32
			c1.3,0,2.4-0.8,2.8-2l14.1-38.9C495.1,225.3,496.2,218.9,489.6,214.5z"/>
		<path class="st1" d="M367.9,270.8c-2.1,0-3,2.6-1.4,4l0,0l54.5,44.8l-4.9,13.4h-42.4l7.4-20.2c1.2-3.2-1.2-6.6-4.6-6.6h-28
			c-2.9,0-5.4,1.8-6.4,4.5L327.7,350c-1.3,3.5-2.3,9.9,4.5,14.3c3.9,2.5,9.3,3.7,16.2,3.7h6.1l0,0h54c0,0,0,0,0,0h7.8
			c6.9,0,13.2-1.3,18.8-3.7c9.8-4.4,13.4-10.8,14.6-14.2l11.9-32.7c1.7-4.7,2.2-11.5-4.8-17.3L422.5,272c-1-0.8-2.1-1.2-3.4-1.2
			h-28.3L367.9,270.8L367.9,270.8z"/>
	</g>
	<g>
		<path class="st2" d="M99.9,192c-3.8,0.1-7-0.1-10.2-0.8c-0.6-0.1-1.2-0.3-1.8-0.5c-1-0.4-1.3-1-1.2-2.1c0-0.3,0.1-0.6,0.2-0.9
			c0.4-1.1,0.8-2.2,1.3-3.4c0.4-1,0.9-1.3,1.9-1c0.9,0.2,1.8,0.5,2.7,0.8c1.8,0.6,3.7,0.9,5.6,1c2.1,0.1,4.2,0,6.3,0
			c1.4,0,2.8-0.3,4.1-0.8c0.9-0.3,1.7-0.8,2.4-1.4c0.5-0.4,0.9-0.9,1.1-1.5c0.7-1.4,0.4-2.2-1-3c-0.7-0.4-1.5-0.7-2.3-1
			c-2.8-0.9-5.7-1.7-8.5-2.6c-1.6-0.5-3.2-1.1-4.6-2.1c-1.5-1-2.2-2.4-2.2-4.2c0-2.6,1-4.8,2.5-6.9c2.8-3.9,6.7-6.1,11.3-7
			c3.6-0.6,7.2-0.9,10.8-0.5c1.9,0.2,3.9,0.1,5.8,0.5c0.7,0.1,1.4,0.3,2,0.6c0.6,0.3,0.9,0.8,0.7,1.4c-0.5,1.5-1.1,3-1.6,4.4
			c-0.2,0.4-0.6,0.5-1,0.5c-0.9-0.1-1.9-0.1-2.8-0.2c-3.8-0.5-7.6-0.7-11.3-0.5c-1.4,0.1-2.9,0.3-4.3,0.8c-1.4,0.5-2.5,1.4-3.1,2.9
			c-0.4,1.1-0.1,2,0.8,2.6c0.6,0.4,1.2,0.6,1.9,0.8c3.1,0.9,6.2,1.8,9.3,2.7c1.3,0.4,2.5,0.9,3.7,1.5c2.6,1.5,3.5,4.1,2.8,6.6
			c-1.4,5.6-4.9,9.5-10.3,11.6c-2.5,1-5.1,1.4-7.8,1.5C102,192.1,100.7,192,99.9,192z"/>
		<path class="st2" d="M234.5,192c-2.6,0.1-5.2,0-7.8-0.4c-1.2-0.2-2.4-0.4-3.5-0.8c-1.1-0.3-1.4-0.9-1.4-2c0-0.4,0.1-0.9,0.2-1.3
			c0.4-1.1,0.8-2.1,1.3-3.2c0.4-1,0.8-1.2,1.9-1c0.6,0.1,1.2,0.3,1.8,0.5c2.6,0.9,5.3,1.3,8,1.3c1.7,0,3.4,0,5.1-0.1
			c1.7-0.1,3.4-0.4,4.9-1.3c0.8-0.4,1.5-1,2-1.7c0.4-0.5,0.6-1.1,0.7-1.8c0-0.7-0.2-1.2-0.8-1.6c-0.8-0.5-1.6-0.9-2.6-1.2
			c-2.5-0.8-4.9-1.5-7.4-2.3c-1.4-0.4-2.9-0.9-4.3-1.6c-0.6-0.3-1.1-0.6-1.6-0.9c-1.7-1.2-2.4-2.9-2.1-4.9c0.3-2.8,1.6-5.2,3.4-7.3
			c2.7-3.1,6.2-5,10.2-5.7c3.7-0.6,7.4-0.9,11.1-0.5c1.9,0.2,3.8,0.1,5.7,0.5c0.6,0.1,1.2,0.3,1.8,0.5c0.8,0.3,1.1,1,0.8,1.9
			c-0.4,1.2-0.9,2.5-1.4,3.7c-0.2,0.6-0.7,0.9-1.3,0.8c-0.6,0-1.1,0-1.7-0.1c-1.8-0.2-3.5-0.5-5.3-0.6c-3.3-0.2-6.6-0.3-9.8,0.3
			c-0.6,0.1-1.2,0.3-1.8,0.5c-1.2,0.5-2.1,1.4-2.6,2.6c-0.5,1.3-0.2,2.2,1,2.9c0.6,0.4,1.2,0.6,1.9,0.8c3,0.9,6.1,1.8,9.1,2.7
			c1.4,0.4,2.8,0.9,4,1.7c2.3,1.6,3.1,3.5,2.5,6.2c-1.2,5.3-4.3,9.1-9.2,11.3c-2.7,1.3-5.7,1.8-8.6,1.9
			C237.3,192.1,235.9,192,234.5,192z"/>
		<path class="st2" d="M142.1,154.6c0.5,0.2,1,0.1,1.5,0.1c2.4,0,4.8,0,7.2,0c0.5,0,1,0,1.5,0.1c0.4,0,0.5,0.3,0.5,0.7
			c0,0.2,0,0.4-0.1,0.6c-0.5,1.3-0.9,2.6-1.4,3.9c-0.3,0.8-0.8,1.1-1.6,1.2c-0.4,0-0.9,0-1.3,0c-2.3,0-4.6,0-6.8,0
			c-0.4,0-0.9,0-1.3,0c-0.6,0-0.9,0.3-1.1,0.9c-0.4,0.9-0.7,1.9-1.1,2.8c-1.8,4.9-3.5,9.7-5.3,14.6c-0.3,0.9-0.6,1.8-0.8,2.7
			c-0.3,1.4,0.2,2.2,1.5,2.6c0.6,0.2,1.2,0.3,1.9,0.3c2,0.1,4,0.1,6.1-0.2c1.9-0.2,2.1,0.1,1.4,1.9c-0.3,0.8-0.6,1.5-0.8,2.3
			c-0.5,1.4-1.4,2.2-2.8,2.5c-0.7,0.1-1.4,0.3-2.1,0.3c-2,0-4.1,0-6.1,0c-1.4,0-2.8-0.3-4.1-0.8c-2.6-0.9-3.9-2.6-3.9-5.4
			c0-1.9,0.4-3.6,1.1-5.4c3.9-10.9,7.9-21.7,11.8-32.6c0.7-1.9,1.8-3.3,3.8-3.9c0.2-0.1,0.4-0.1,0.6-0.1c1.4,0,2.9,0,4.4,0
			c0.5,0,0.8,0.4,0.6,0.9c-0.7,1.9-1.4,3.8-2.1,5.7c-0.4,1-0.8,2-1.1,3C142.1,153.8,141.9,154.2,142.1,154.6z"/>
		<path class="st2" d="M225.7,163.3c-0.1-3.4-1.6-5.9-4.8-7.3c-0.8-0.3-1.7-0.6-2.5-0.8c-2.2-0.5-4.4-0.6-6.6-0.7
			c-1.4-0.1-2.8,0.1-4.2,0.2c-3.3,0.1-6.5,0.7-9.8,1.2c-2.1,0.3-3.4,1.4-4.1,3.4c-1.7,4.8-3.5,9.6-5.3,14.4
			c-3.4,9.2-6.7,18.4-10.1,27.6c-0.4,1.1-0.8,2.2-1.2,3.4c-0.2,0.5,0.1,0.9,0.6,0.9c1.4,0,2.8,0.1,4.2,0c1.5-0.1,2.6-0.9,3.4-2.1
			c0.4-0.6,0.6-1.2,0.9-1.9c0.6-1.7,1.3-3.4,1.9-5.2c0.5-1.3,1-2.6,1.4-3.9c0.2-0.6,0.6-0.9,1.3-0.9c0.8,0.1,1.6,0,2.5,0.1
			c1.2,0.2,2.4,0.2,3.6,0.2c2.6,0.1,5.2-0.2,7.7-0.6c3.4-0.5,6.4-1.9,9.2-3.9c3.2-2.3,5.6-5.3,7.4-8.8c1.7-3.3,3-6.8,3.9-10.5
			C225.4,166.6,225.7,165,225.7,163.3z M216.8,168.4c-0.8,3.3-1.9,6.5-3.4,9.6c-2.1,4.3-5.8,6.4-10.4,6.8c-2.5,0.2-5.1,0.1-7.6,0
			c-0.9,0-1.7-0.3-2.6-0.5c0-0.8,0.3-1.3,0.5-1.9c2.2-6,4.4-12,6.6-18c0.1-0.2,0.2-0.5,0.3-0.7c0.3-0.9,1-1.5,1.9-1.6
			c1-0.2,2-0.4,3-0.4c2.8-0.1,5.6-0.3,8.3,0.3c0.7,0.1,1.3,0.4,1.9,0.8c1,0.6,1.6,1.5,1.6,2.6C217.1,166.4,217.1,167.4,216.8,168.4z
			"/>
		<path class="st2" d="M184.9,156.6c-1.3-0.8-2.7-1.4-4.2-1.8c-2.4-0.5-4.9-0.8-7.3-0.7c-2.2,0.1-4.4,0.2-6.6,0.7
			c-3.3,0.7-6.3,2-8.8,4.1c-2.4,2-4.3,4.4-5.9,7.2c-1.8,3.3-3.1,6.8-4.1,10.4c-0.6,2.2-1,4.4-0.9,6.7c0.1,3,1.5,5.3,4.1,6.8
			c1,0.6,2.1,1,3.2,1.2c1.9,0.4,3.9,0.6,5.8,0.7c3.8,0.1,7.6-0.2,11.4-0.3c0.6,0,1.1-0.2,1.7-0.3c1.4-0.3,2.4-1.1,2.8-2.5
			c0.4-1.1,0.8-2.3,1.1-3.4c0.3-0.8,0-1.2-0.9-1.1c-0.2,0-0.4,0.1-0.6,0.1c-3.3,0-6.6,0.6-10.1,0.5c-1.1,0-2.4,0-3.7,0
			c-1.3,0-2.5-0.3-3.7-0.7c-2.1-0.7-2.8-2.6-2.6-4.7c0.1-0.6,0.4-0.9,1-1c0.8-0.1,1.5-0.2,2.2-0.4c4.6-0.8,9.2-1.5,13.8-2.3
			c2.6-0.5,5.2-1.1,7.5-2.4c4.6-2.6,7-6.6,7.3-11.9C187.5,159.3,186.6,157.7,184.9,156.6z M178.7,164.6c-0.5,2.4-1.9,3.9-4.2,4.7
			c-1.4,0.4-2.8,0.8-4.2,1c-3.7,0.7-7.5,1.3-11.2,1.9c-0.2,0-0.5,0.1-0.6,0.1c-0.6,0-0.8-0.2-0.7-0.6c0.9-2.6,1.9-5.2,3.8-7.4
			c1.2-1.3,2.7-2.3,4.4-2.8c1.3-0.4,2.6-0.7,3.9-0.7c1.4,0,2.8,0,4.2,0c1,0,2,0.2,3,0.6C178.6,162,179.1,163.1,178.7,164.6z"/>
	</g>
	<g>
		<path class="st2" d="M83.1,317.7c-0.1-0.1-0.1-0.3-0.2-0.4c0,0,0,0-0.1-0.1c-0.1-0.1-0.2-0.2-0.3-0.3s-0.3-0.1-0.4-0.2
			c-0.3-0.1-0.7-0.2-1-0.2c-0.1,0-0.2,0-0.3,0c-4.5,0-9.1,0-13.6,0H41.7h-0.4l0,0c-1.6,0-3.2,0.3-4.5,0.9c-1.9,0.8-3.4,2-4.2,3.5
			L19,347.9c-0.6,1.1,0.6,2.3,2.3,2.3c2.8,0,5.5,0,8.2,0c0.8,0,1.6,0,2.3,0c1.9,0,3.8,0,5.7,0s3.8,0,5.7,0c3,0,6.1,0,9.1,0l0,0
			c0.5,0,1.1,0,1.6,0c0.2,0,0.4,0,0.6,0c0.3,0,0.7,0,1-0.1c0.3,0,0.5-0.1,0.8-0.1c0.2,0,0.5-0.1,0.8-0.1c0.3,0,0.6-0.1,1-0.2
			c0.2,0,0.4-0.1,0.6-0.1c0.4-0.1,0.7-0.2,1.1-0.3c0.1,0,0.3-0.1,0.4-0.1c0.4-0.1,0.8-0.2,1.1-0.4c0.1,0,0.2-0.1,0.3-0.1
			c0.4-0.1,0.8-0.3,1.2-0.5c0.1,0,0.1,0,0.2-0.1c0.4-0.2,0.8-0.4,1.2-0.6c0,0,0.1,0,0.1,0c0.4-0.2,0.8-0.4,1.2-0.7c0,0,0,0,0,0
			c2.9-1.7,5.2-3.9,6.6-6.6l11-21.6c0.1-0.1,0.1-0.3,0.1-0.4C83.2,318,83.2,317.9,83.1,317.7z"/>
		<path class="st3" d="M75.7,333.1l7.4-14.5c0.1-0.1,0.1-0.3,0.1-0.4c0-0.2,0-0.4-0.1-0.5c-0.1-0.1-0.1-0.3-0.2-0.4c0,0,0,0-0.1-0.1
			c-0.1-0.1-0.2-0.2-0.3-0.3s-0.3-0.1-0.4-0.2c-0.3-0.1-0.7-0.2-1-0.2c-0.1,0-0.2,0-0.3,0c-3.5,0-7,0-10.4,0l-6,16.6L75.7,333.1
			L75.7,333.1z"/>
		<path class="st1" d="M180.2,214.4c-3.8-2.5-9.2-3.7-16.1-3.7h-5h-57.3h-5.7c-6.9,0-13.2,1.2-18.9,3.7
			c-10.1,4.4-13.7,10.8-14.9,14.3l-5.9,16.2c-0.9,2.4,0.9,4.9,3.5,4.9h13.9h19.3c0.8,0,1.6-0.5,1.9-1.3l1-2.8h42.4l-6.7,18.5
			c-0.9,2.6,1,5.3,3.7,5.3h32.1c1.3,0,2.4-0.8,2.8-2l14.2-38.9C185.8,225.2,186.9,218.8,180.2,214.4z"/>
		<path class="st1" d="M147.4,300.1L113.1,272c-0.9-0.8-2.2-1.2-3.4-1.2H81.3H58.4c-2.1,0-3.1,2.6-1.4,4l0,0l53.4,44
			c0.7,0.5,0.9,1.4,0.6,2.2l-3.9,10.8c-0.3,0.8-1,1.3-1.9,1.3H80.3c-0.8,0-1.4,0.4-1.8,1.1l-3.7,7.4c-1.6,3.1-4.3,5.8-7.8,7.8
			l-0.1,0l0,0c-0.4,0.2-0.9,0.5-1.3,0.7c0,0-0.1,0-0.1,0.1c-0.5,0.2-0.9,0.4-1.3,0.6c-0.1,0-0.1,0-0.2,0.1c-0.5,0.2-0.9,0.4-1.3,0.5
			c-0.1,0-0.2,0.1-0.3,0.1l-0.1,0c-0.4,0.1-0.8,0.3-1.3,0.4c-0.1,0-0.2,0.1-0.3,0.1l-0.1,0l-0.1,0c-0.4,0.1-0.7,0.2-1.1,0.3
			c-0.2,0-0.3,0.1-0.5,0.1l-0.2,0l-0.2,0c-0.3,0.1-0.6,0.1-0.9,0.2c-0.2,0-0.4,0.1-0.6,0.1l-0.2,0l-0.2,0c-0.2,0-0.4,0.1-0.7,0.1
			c-0.3,0-0.6,0-0.9,0.1l-0.2,0l-0.2,0c-0.2,0-0.3,0-0.5,0c-0.6,0-1.2,0-1.8,0h-9.1h-5.7h-5.7h-2.3h-8.2c-0.9,0-1.8-0.2-2.5-0.5
			c-0.6-0.3-1.3,0.1-1.4,0.8c-0.5,3.5,0.3,7.8,5.4,11c3.9,2.5,9.3,3.7,16.2,3.7h6.1l0,0H99c0,0,0,0,0,0h7.8c6.9,0,13.3-1.3,18.8-3.7
			c9.8-4.4,13.4-10.8,14.6-14.2l11.9-32.7C153.9,312.7,154.5,306,147.4,300.1z"/>
	</g>
</g>
</svg>
